<?xml version="1.0" standalone="no"?>
<!DOCTYPE svg PUBLIC "-//W3C//DTD SVG 20010904//EN"
 "http://www.w3.org/TR/2001/REC-SVG-20010904/DTD/svg10.dtd">
<svg version="1.0" xmlns="http://www.w3.org/2000/svg"
 width="618.000000pt" height="618.000000pt" viewBox="0 0 618.000000 618.000000"
 preserveAspectRatio="xMidYMid meet">
<metadata>
Created by potrace 1.14, written by Peter Selinger 2001-2017
</metadata>
<g transform="translate(0.000000,618.000000) scale(0.100000,-0.100000)"
fill="#000000" stroke="none">
<path d="M0 3090 l0 -3090 3090 0 3090 0 0 3090 0 3090 -3090 0 -3090 0 0
-3090z m1236 735 c65 -42 82 -117 66 -290 -6 -65 -10 -121 -8 -122 2 -2 18 32
36 74 67 160 167 280 275 330 49 22 74 27 140 28 106 0 167 -28 210 -99 27
-44 30 -59 33 -145 3 -86 -2 -123 -53 -356 -80 -371 -82 -445 -15 -480 59 -31
170 -3 170 43 0 31 29 62 59 62 15 0 36 9 46 20 42 47 79 11 73 -73 -3 -50 -2
-51 37 -74 46 -26 118 -30 168 -9 74 30 126 128 146 270 6 43 11 82 11 87 0 5
-20 9 -45 9 -83 0 -121 36 -108 101 9 45 37 63 108 67 l64 4 5 37 c11 65 37
353 33 357 -9 9 -181 -28 -217 -46 -79 -40 -102 -114 -60 -193 25 -46 19 -72
-20 -92 -59 -31 -119 -12 -146 44 -23 47 -30 150 -14 206 15 53 76 126 133
160 53 30 186 69 302 86 177 27 713 12 788 -22 17 -8 42 -7 99 5 124 26 354
39 606 34 252 -5 297 -13 332 -59 16 -20 16 -20 65 2 124 55 266 71 395 45
105 -22 167 -53 217 -110 45 -52 63 -101 63 -177 0 -76 -16 -124 -51 -153 -38
-33 -80 -33 -116 -2 -27 23 -28 27 -25 111 4 102 -6 123 -71 157 -36 19 -58
23 -147 23 -95 0 -110 -3 -162 -28 -78 -38 -102 -78 -96 -158 7 -94 55 -134
272 -223 136 -57 204 -93 251 -137 66 -61 85 -108 85 -211 0 -75 -4 -92 -31
-146 -46 -93 -128 -152 -260 -188 -99 -27 -302 -25 -395 4 -140 43 -219 124
-231 235 -13 131 25 207 107 207 30 0 47 -6 65 -24 23 -23 24 -29 18 -108 -6
-83 -6 -84 25 -114 43 -43 107 -59 237 -59 98 0 116 3 167 27 82 38 118 104
98 179 -16 59 -75 101 -239 170 -197 83 -216 93 -277 151 -75 71 -97 128 -92
237 3 55 11 98 22 119 10 19 15 37 11 40 -4 4 -99 7 -213 7 l-206 0 -9 -40
c-34 -162 -101 -561 -122 -723 -37 -286 -36 -282 -68 -306 -41 -30 -118 -29
-149 2 -20 20 -23 31 -20 90 4 116 114 783 157 955 l7 27 -73 0 c-144 -1 -275
-43 -304 -100 -19 -36 -19 -107 0 -140 24 -41 19 -76 -14 -99 -90 -65 -171 17
-171 171 0 51 6 86 20 117 11 24 20 45 20 47 0 2 -80 4 -178 4 l-179 0 -16
-177 c-10 -98 -17 -186 -17 -195 0 -15 18 -17 155 -20 178 -3 190 -9 189 -79
-1 -30 -9 -48 -28 -68 -26 -26 -29 -26 -186 -29 l-160 -3 0 -26 c0 -13 -9 -70
-20 -125 -50 -242 -155 -354 -352 -374 -98 -10 -223 23 -280 74 -16 13 -21 12
-55 -11 -162 -111 -366 -73 -437 83 -30 67 -26 205 13 385 89 412 94 444 82
486 -14 45 -50 69 -107 69 -56 0 -116 -34 -177 -99 -124 -135 -219 -401 -277
-780 -24 -153 -31 -174 -65 -197 -33 -21 -100 -14 -129 16 -31 31 -26 138 23
435 45 280 71 476 71 546 0 121 -106 101 -236 -45 -80 -89 -124 -87 -124 6 0
92 169 258 299 295 56 16 144 10 177 -12z"/>
</g>
</svg>
